<svg xmlns="http://www.w3.org/2000/svg" width="331" height="40" viewBox="0 0 331 40" role="img" aria-labelledby="title"><title id="title">想多了解一点？文档收在这里</title><g transform="translate(0 4) scale(.76)"><g fill="none" stroke="#31566A" stroke-width="2" stroke-linejoin="round" stroke-linecap="round"><path d="M7 14V9a3 3 0 013-3h7l4 4h10a3 3 0 013 3v15H9a3 3 0 01-3-4l3-10z" fill="#FFF1D7"/><path d="M9 14h25l-3 14H9" fill="#EAF5F8"/><path d="M17 20h9"/></g></g><path d="M337 219Q330 219 316 226Q286 247 286 271Q291 301 291 346Q291 460 293 506Q264 445 186 363Q112 284 90 284Q76 284 76 298Q76 307 108.0 344.5Q140 382 183.5 446.5Q227 511 262 577L175 572Q154 572 147 579Q124 597 121 621Q121 636 131 636L175 632Q183 632 290 640V734Q290 755 282.5 772.0Q275 789 275 791Q275 804 297 804Q313 804 341 790Q357 782 357 765V644Q424 650 434.5 653.0Q445 656 454 656Q464 656 483.0 643.0Q502 630 502 613Q502 594 476 591L357 583V550L354 549Q371 549 412.0 519.5Q453 490 471.5 472.5Q490 455 490 443Q490 432 478.0 416.5Q466 401 455 401Q443 401 419.0 428.0Q395 455 358 482V245Q358 219 337 219ZM569 229Q559 229 543 237Q517 249 517 273Q517 280 520.0 296.0Q523 312 523 337L515 664Q512 704 506.5 716.5Q501 729 501 736Q501 752 521 752Q536 752 582 730L803 746Q819 746 834.0 732.0Q849 718 849 705Q849 693 846.0 686.0Q843 679 829 360Q854 334 854 322Q854 308 844.0 304.0Q834 300 592 287L593 254Q593 229 569 229ZM586 604 770 616 772 684 584 671ZM588 480 766 490 768 556 587 545ZM591 349 762 359 764 431 589 421ZM908 30Q897 30 875 56Q818 125 749 182Q734 196 734 208Q734 218 746.0 232.0Q758 246 769 246Q793 246 896 150Q954 94 954.0 77.0Q954 60 936.0 45.0Q918 30 908 30ZM559 77Q550 77 532 100Q502 141 443 182Q426 196 426 208Q426 218 438.0 231.5Q450 245 461 245Q470 245 488.0 233.0Q506 221 535.5 195.5Q565 170 584.5 154.0Q604 138 604.0 121.0Q604 104 578 85Q567 77 559 77ZM113 -53Q110 -53 98 -48Q65 -34 65 -12Q65 -4 74 10Q135 100 167 199Q175 221 191 221Q201 221 217.5 214.0Q234 207 234 188Q234 171 201 92Q139 -53 113 -53ZM639 -82Q478 -82 398 -35Q305 22 278 145Q273 168 273 176Q273 196 316 200Q339 200 344 173Q358 118 385 77Q440 -8 620 -8Q700 -8 700 -6Q658 111 658 130Q658 155 673 155Q689 155 709.0 117.5Q729 80 764.5 32.0Q800 -16 800 -30Q800 -45 783.5 -58.5Q767 -72 735.0 -77.0Q703 -82 639 -82Z" transform="translate(39.000 28) scale(0.022000 -0.022000)" fill="#31566A"/><path d="M137 -98Q118 -98 118 -83Q118 -69 143 -62Q396 4 553 108Q500 153 448 183Q433 190 433 203Q433 206 438.0 216.0Q443 226 452.5 235.0Q462 244 473.0 244.0Q484 244 523.0 220.0Q562 196 614 154Q703 219 764 298L503 286Q376 195 242 139Q210 126 200 126Q184 126 184.0 138.0Q184 150 204 162Q405 279 526 405Q539 420 540 445Q541 454 543 459Q516 441 487 424Q323 330 154 291L124 284Q103 284 103.0 298.0Q103 312 127 321Q328 396 466 493Q437 518 378 555Q364 562 364 575Q364 586 376.0 601.5Q388 617 401 617Q413 617 449.5 594.0Q486 571 526 537Q614 599 669 667L435 651Q377 606 307 570Q186 509 164 509Q148 509 148 523Q148 533 168 545Q255 595 321.0 646.0Q387 697 449 764Q463 780 463.0 804.5Q463 829 480 829Q493 829 508.5 818.5Q524 808 537.0 793.5Q550 779 550 771Q550 762 536.0 744.5Q522 727 517 723L705 737Q741 737 766 710Q778 697 778 686Q778 673 771.0 667.0Q764 661 760 657Q676 551 559 470Q570 470 585 460Q601 450 614.0 435.5Q627 421 627 408Q627 393 583 355L799 368Q836 368 860 341Q873 328 873 317Q873 304 866.0 298.0Q859 292 857 288Q632 -25 154 -97Q150 -98 137 -98Z" transform="translate(61.000 28) scale(0.022000 -0.022000)" fill="#31566A"/><path d="M506 -110Q457 -110 332 -11Q261 48 261 70Q261 82 276 82Q287 82 341.5 50.0Q396 18 479 -13H481Q492 61 492 140Q492 390 437 485Q427 501 427.0 512.0Q427 523 441.0 534.0Q455 545 473 545Q492 545 503 522Q601 594 678 686L226 657Q210 657 198 668Q168 696 168 721Q168 733 180 733Q186 733 195.0 730.5Q204 728 222 728Q739 761 751 761Q771 761 789.5 746.0Q808 731 808.0 717.0Q808 703 798.5 696.0Q789 689 784 685Q654 546 531 457Q569 335 569 109L568 60Q568 -110 506 -110Z" transform="translate(83.000 28) scale(0.022000 -0.022000)" fill="#31566A"/><path d="M313 30Q317 35 325 35Q334 35 385 0L387 180L315 177ZM501 194Q509 193 520 193L684 199L685 296L584 289Q527 195 501 194ZM33 -91Q21 -91 21 -76Q21 -66 38 -31Q78 54 97.5 162.0Q117 270 117 470Q117 502 116 505Q62 455 47 455Q35 455 35 469Q35 478 61 509Q123 578 172.0 667.0Q221 756 221.0 784.5Q221 813 236 813Q246 813 261.0 804.5Q276 796 289.0 783.5Q302 771 302 761Q302 752 286 723Q277 705 277 702V701Q278 701 280 703L356 710Q389 710 401.0 694.0Q413 678 413.0 669.0Q413 660 380.5 610.0Q348 560 343 554L409 557Q463 557 463 519Q461 501 452 -2L454 -35Q454 -53 440.0 -67.0Q426 -81 406 -81Q385 -81 363 -57Q321 -11 313 12Q312 -9 291 -9Q276 -9 258.5 6.5Q241 22 241 36Q247 78 247 174L169 171Q148 74 100 -11Q56 -91 33 -91ZM495 426Q480 426 480 439Q480 451 499 467Q602 547 634 664L539 657Q521 657 509.5 670.5Q498 684 493.0 698.5Q488 713 488 716Q488 728 501 728Q506 728 517.5 725.5Q529 723 553 723Q847 744 857 744Q886 744 898 721Q902 713 902 708Q902 702 900.0 697.0Q898 692 895.5 666.5Q893 641 887.0 602.5Q881 564 874.0 536.0Q867 508 863.5 491.0Q860 474 843.0 461.5Q826 449 814 449Q792 449 734.0 492.0Q676 535 676 550Q676 564 691 564Q701 564 737.5 548.5Q774 533 791 528H793Q812 597 819 678L718 670Q677 541 587 475Q550 448 524.0 437.0Q498 426 495 426ZM181 544 261 549Q300 605 319 641L233 634Q203 589 165 550Q168 550 181 544ZM318 403 390 408 391 492 320 488ZM185 397 251 401 252 485 188 481Q188 437 185 397ZM730 -103Q712 -103 694.0 -90.0Q676 -77 676 -59Q676 -51 680.0 -26.0Q684 -1 684 133L517 128Q488 128 473 165Q464 183 464 189Q464 199 475 199Q480 199 490 196Q491 196 492 196Q486 199 486.0 208.0Q486 217 494 231Q541 312 569 420Q571 430 571 440L570 452Q570 468 583 468Q585 468 599.0 461.5Q613 455 628.0 444.0Q643 433 643 417Q643 402 620 356L685 360V407Q685 446 675 461Q671 467 671 472Q671 484 684 484Q692 484 707 480Q756 470 756 436V364Q834 369 843.0 372.0Q852 375 858 375Q865 375 876 367Q906 346 906 327Q906 310 880 307L756 299V202Q899 208 908.5 211.5Q918 215 927 215Q937 215 948.0 204.5Q959 194 966.0 182.0Q973 170 973 164Q973 146 945 143L756 135V-72Q756 -103 730 -103ZM316 241 387 244 389 345 318 341ZM176 236 249 239 250 338 183 334Z" transform="translate(105.000 28) scale(0.022000 -0.022000)" fill="#31566A"/><path d="M127 313Q99 313 87 321Q69 336 61.0 357.5Q53 379 53 385Q53 396 63 396Q67 396 79.0 392.5Q91 389 110 389L837 426Q860 428 870.0 432.0Q880 436 887 436Q895 436 910.0 427.0Q925 418 937.5 404.0Q950 390 950 378Q950 356 921 354Z" transform="translate(127.000 28) scale(0.022000 -0.022000)" fill="#31566A"/><path d="M305 141Q282 141 265.5 155.5Q249 170 249 187Q253 215 253 227Q253 238 242 325Q230 427 221.5 444.5Q213 462 213 469Q213 481 234 481Q249 481 302 461L444 469L445 737Q445 755 437.5 768.5Q430 782 430 790Q430 801 447 801Q459 801 475 798Q523 789 523 760L520 643L709 654Q727 655 738.0 660.0Q749 665 759.0 665.0Q769 665 781 656Q812 635 812 612Q812 592 780 590L519 576L517 473L703 483Q737 483 752.5 470.0Q768 457 768 445Q768 434 764.5 429.0Q761 424 734 264Q756 234 756 221Q756 205 741.5 203.0Q727 201 329 187L330 172Q330 141 305 141ZM321 254 662 268 683 416 308 396ZM908 -99Q893 -99 882 -82Q814 11 734 85Q720 99 720.0 108.0Q720 117 732.5 132.0Q745 147 756 147Q780 147 894 27Q956 -39 956 -54Q956 -64 947 -76Q925 -99 908 -99ZM655 -79Q640 -79 627 -58Q577 23 519 86Q506 101 506 109Q506 122 520.5 133.5Q535 145 544 145Q565 145 654 34Q703 -26 703 -38Q703 -47 685.5 -63.0Q668 -79 655 -79ZM107 -102Q97 -102 78.5 -87.5Q60 -73 60 -58Q60 -44 72 -32Q147 44 184 120Q192 140 208 140Q222 140 237.0 131.0Q252 122 252 109Q252 98 239.5 74.0Q227 50 209.0 21.0Q191 -8 171.5 -36.0Q152 -64 135.0 -83.0Q118 -102 107 -102ZM431 -76Q413 -76 403 -53Q367 29 328 80Q317 95 317 104Q317 114 331.0 125.0Q345 136 355 136Q379 136 444 32Q480 -24 480 -39Q480 -48 463.0 -62.0Q446 -76 431 -76Z" transform="translate(149.000 28) scale(0.022000 -0.022000)" fill="#31566A"/><path d="M274 -15Q247 -15 229.5 6.0Q212 27 212 51Q212 74 226.5 90.5Q241 107 267.0 107.0Q293 107 311.0 84.5Q329 62 329 39Q329 -15 274 -15ZM278 162Q241 162 234.0 181.0Q227 200 227 224Q227 247 232.0 281.5Q237 316 259.0 345.5Q281 375 308.5 399.0Q336 423 363 446Q423 500 423 568Q423 602 401.5 625.0Q380 648 333 648Q284 648 243.5 629.5Q203 611 178.0 585.5Q153 560 141 517Q135 500 117 500Q100 500 82.0 515.0Q64 530 64 544Q64 556 67 560Q157 719 330 719Q414 719 461.0 680.5Q508 642 508 581Q508 521 488 483Q460 430 382 369Q352 346 329.0 318.5Q306 291 306 254Q306 225 316 185Q316 162 278 162Z" transform="translate(171.000 28) scale(0.022000 -0.022000)" fill="#31566A"/><path d="M897 -94Q891 -94 885 -91Q676 8 504 177Q392 60 238 -19Q173 -53 127.5 -69.5Q82 -86 68 -86Q49 -86 49.0 -73.0Q49 -60 71 -49Q327 89 452 231Q360 338 267 529L186 524Q167 522 151 522Q134 522 121 528Q102 537 88 568Q87 573 85.0 576.5Q83 580 83 585Q83 598 98 598Q123 593 149 593Q162 593 457 611L456 730Q456 751 448.0 762.5Q440 774 440 783Q440 796 465 796Q484 796 510.0 787.0Q536 778 536 761L535 615Q841 634 854.0 637.5Q867 641 877 641Q888 641 902.5 630.5Q917 620 927.5 608.0Q938 596 938 588Q938 569 913 566L734 555Q703 473 653.5 385.5Q604 298 554 235Q732 65 945 -20Q963 -27 963 -36Q963 -44 952 -59Q923 -94 897 -94ZM501 289Q592 408 640 550L347 534Q421 380 501 289Z" transform="translate(193.000 28) scale(0.022000 -0.022000)" fill="#31566A"/><path d="M462 -55Q447 -55 432.0 -46.0Q417 -37 403 -2Q400 1 400 8Q400 22 416 22Q428 20 439.0 18.0Q450 16 460 16L815 26L825 161L518 146Q489 146 473.0 160.0Q457 174 451.5 189.5Q446 205 446 211Q446 222 458 222Q500 215 512 215L829 228L838 349L487 327Q464 327 446.5 336.0Q429 345 416 380Q414 383 414 387Q414 399 428 399Q468 394 482 394L629 404L628 734Q628 761 616 781L613 788Q613 804 631 804Q643 804 657 801Q702 792 702 766L699 408L861 419Q886 419 905.0 402.5Q924 386 924 374Q924 363 920.0 355.0Q916 347 887 28Q915 -9 915 -22Q915 -39 904.5 -41.0Q894 -43 881 -44ZM263 -101Q250 -101 229.0 -89.5Q208 -78 208 -54Q208 -46 212.0 -31.0Q216 -16 216 20L220 298L221 320Q205 273 138.0 181.5Q71 90 47 90Q35 90 35 106Q35 117 64 163Q150 303 213 481Q129 472 114 472Q95 472 83.0 486.5Q71 501 65.5 515.5Q60 530 60 532Q60 543 74 543Q99 538 110 538L223 547L225 727Q225 748 216.0 761.5Q207 775 207 780Q207 795 226 795Q239 795 262.0 786.5Q285 778 291.5 770.0Q298 762 298 749L295 552Q363 557 373.5 560.5Q384 564 392.0 564.0Q400 564 412 555Q444 534 444.0 516.0Q444 498 416 495L295 487L293 417Q299 421 309.0 421.0Q319 421 329 411Q429 311 429 291Q429 265 387 248Q373 248 361 266Q332 312 293 356L287 -71Q287 -101 263 -101ZM735 444Q723 444 723 458Q723 468 747 508Q825 649 825 692Q825 700 824 705Q824 724 843 724Q858 724 873 714Q907 691 907 670Q907 662 885.5 624.0Q864 586 833.5 543.0Q803 500 782.0 479.0Q761 458 749.5 451.0Q738 444 735 444ZM552 448Q536 448 528 466Q476 575 430 634Q422 645 422 656Q422 668 438.0 677.5Q454 687 464 687Q483 687 560 564Q600 500 600 488Q600 479 583.0 463.5Q566 448 552 448Z" transform="translate(215.000 28) scale(0.022000 -0.022000)" fill="#31566A"/><path d="M877 -48Q785 29 682 161Q631 88 535.5 8.5Q440 -71 408 -71Q391 -71 391.0 -57.0Q391 -43 413 -27Q536 69 637 223Q571 319 530 424Q475 339 431 301Q419 292 411 292Q399 292 399 307Q399 317 421 352Q491 463 555 646Q591 750 591 784Q591 793 590 798Q590 814 607 814Q619 814 635.5 804.0Q652 794 665.5 780.0Q679 766 679 759Q679 753 661.5 701.5Q644 650 607 569L832 583Q849 584 864.5 589.5Q880 595 889 595Q899 595 913.0 584.0Q927 573 937.0 560.0Q947 547 947 539Q947 523 919 520L840 515Q798 344 723 223Q836 81 973 -14Q986 -23 986.0 -31.0Q986 -39 973.5 -50.0Q961 -61 946.5 -69.5Q932 -78 923.0 -78.0Q914 -78 877 -48ZM352 -93Q338 -93 315.5 -81.5Q293 -70 293 -47Q293 -41 298.0 -12.0Q303 17 303 38L304 220Q126 101 105.0 101.0Q84 101 69 112Q43 133 32 158Q32 170 53.0 173.5Q74 177 127 201L129 631Q129 656 121.5 666.5Q114 677 114 682Q114 696 132 696Q144 696 159 692Q201 682 201 665L196 232Q216 241 246.5 255.5Q277 270 305 285L308 733Q308 754 301.0 766.5Q294 779 294 787Q294 798 309 798Q317 798 333 796Q382 789 382 760L378 -63Q378 -93 352 -93ZM675 291Q725 388 752 511L574 500L573 498Q614 382 675 291Z" transform="translate(237.000 28) scale(0.022000 -0.022000)" fill="#31566A"/><path d="M385 -24H368Q334 -24 323 -10Q309 7 303 22L302 -65Q302 -97 279 -97Q265 -97 244.0 -85.5Q223 -74 223 -52Q229 -4 229 34L232 271Q201 237 152 196Q61 122 34 122Q22 122 22 135Q22 145 58.0 175.5Q94 206 142.0 259.5Q190 313 233 371L234 407Q234 421 226.0 436.5Q218 452 218 459Q218 471 232 471Q241 471 257 468Q289 464 294 459Q331 517 350 552L181 542Q164 542 146.5 550.5Q129 559 115 596Q113 599 113 604Q113 617 128 617Q153 612 179 612Q192 612 386 624Q443 752 443 786Q443 798 442 809Q442 824 455 824Q460 824 477 818Q527 799 527 774Q527 770 511.0 725.0Q495 680 470 630Q807 651 819.0 654.5Q831 658 838 658Q846 658 861 649Q902 628 902 605Q902 587 877 584L434 557Q379 454 305 357L303 54Q305 55 308 55Q312 55 325.0 50.0Q338 45 360 45L556 54L558 264L424 256Q394 256 384.5 267.0Q375 278 365.5 295.0Q356 312 356 321Q356 334 366 334Q370 334 383.0 329.0Q396 324 418 324L558 334L559 485Q559 512 548 531Q545 535 545 542Q545 552 562 552Q574 552 597.5 543.0Q621 534 627.5 526.0Q634 518 634 502L633 339Q774 349 781.0 351.5Q788 354 795 354Q803 354 816.5 345.5Q830 337 841.5 324.0Q853 311 853 301Q853 282 824 280L632 268L630 56Q858 67 893 73Q914 73 942 42Q955 29 955 19Q955 -1 925 -3Z" transform="translate(259.000 28) scale(0.022000 -0.022000)" fill="#31566A"/><path d="M62 483Q85 479 92 479H104Q108 479 112 480L263 496L275 497Q288 497 304.5 484.5Q321 472 321.0 459.5Q321 447 313 438L301 427Q298 422 254.0 364.5Q210 307 210.0 304.5Q210 302 212 301Q267 267 291.5 243.5Q316 220 316.0 197.5Q316 175 296.5 150.5Q277 126 236 89Q252 88 357 67Q712 -4 931 -4H936Q965 -4 965 -20L960 -35Q940 -81 908 -81H902Q776 -78 584.0 -45.5Q392 -13 309.0 5.0Q226 23 182.0 23.0Q138 23 105.5 12.0Q73 1 61.5 1.0Q50 1 42.5 15.0Q35 29 35.0 44.5Q35 60 43 68Q57 82 137 89Q197 143 236 192Q237 194 237 196Q237 199 204 224Q171 247 166 250Q137 269 137.0 289.5Q137 310 147 326Q175 369 212 422L132 412Q115 410 102.0 410.0Q89 410 76.0 422.5Q63 435 56.0 449.5Q49 464 49.0 473.5Q49 483 62 483ZM743 568 425 552 391 551Q355 551 338 588Q331 602 331.0 611.5Q331 621 345 621Q350 621 362.0 618.0Q374 615 392 615L587 626L589 733Q589 753 580.5 767.0Q572 781 572.0 791.0Q572 801 587 801Q662 801 662 756L661 630L811 638Q844 640 855.0 643.5Q866 647 874.5 647.0Q883 647 899 639Q937 620 937 597Q937 580 911 577L769 570Q777 566 786 559Q827 526 813 501Q748 394 696 327Q779 249 861 161Q875 148 876.0 135.0Q877 122 863.5 106.0Q850 90 836.0 90.0Q822 90 806 108Q742 185 650 272L632 253Q506 127 356 82Q316 73 319 95Q320 106 339 115Q499 205 583 310L595 324Q527 387 426 470Q418 478 417.5 482.5Q417 487 421 496Q432 524 456 526Q468 526 480 518Q588 425 640 378Q643 383 659.5 405.0Q676 427 705.0 474.5Q734 522 739 558Q740 564 743 568ZM245 566Q191 638 130 691Q114 705 114.0 714.5Q114 724 123 733Q144 750 154.0 750.0Q164 750 183.0 736.0Q202 722 224.5 701.0Q247 680 268.5 658.0Q290 636 305.0 617.5Q320 599 320.0 588.0Q320 577 303.0 561.0Q286 545 274.5 545.0Q263 545 245 566Z" transform="translate(281.000 28) scale(0.022000 -0.022000)" fill="#31566A"/><path d="M144 -48Q93 -48 81.5 -37.0Q70 -26 61.5 -7.5Q53 11 53 17Q53 28 64 28Q69 28 82.5 24.5Q96 21 135 21L455 29V150L262 142Q240 142 229 152Q205 178 201 203Q201 217 211 217Q216 217 231.5 212.5Q247 208 269 208L455 216V324L294 316L296 291Q296 263 274 263Q270 263 256 268Q216 286 216 318Q218 340 218 355Q218 362 195 657Q194 683 184.5 706.0Q175 729 175 736Q175 748 195 748Q210 748 257 730L755 760Q793 760 807.5 743.5Q822 727 822 717Q822 708 818.0 700.0Q814 692 785 398Q811 371 811 360Q811 346 801.5 342.0Q792 338 529 327L528 219Q729 227 739.0 231.0Q749 235 760.0 235.0Q771 235 790.0 219.0Q809 203 809 186Q809 166 784 163L528 152L527 31L826 39Q858 41 875.5 45.0Q893 49 901 49Q910 49 924.0 41.0Q938 33 949.0 20.0Q960 7 960 -6Q960 -26 940 -26ZM530 570 727 582 735 694 531 682ZM276 555 455 566V678L267 666ZM529 392 714 401 723 518 530 506ZM289 380 455 389V503L280 492Z" transform="translate(303.000 28) scale(0.022000 -0.022000)" fill="#31566A"/></svg>
