<svg xmlns="http://www.w3.org/2000/svg" width="199" height="40" viewBox="0 0 199 40" role="img" aria-labelledby="title"><title id="title">发布前的小提醒</title><g transform="translate(0 4) scale(.76)"><g fill="none" stroke="#31566A" stroke-width="2" stroke-linejoin="round" stroke-linecap="round"><path d="M20 31C14 27 4 20 6 12c2-8 11-8 14-2 4-6 13-6 15 2 2 8-9 16-15 19Z" fill="#FFF1D7"/><path d="M11 13q3-4 5-1" stroke="#E98B79"/><path d="M27 26l5 3m-4-7h6" stroke="#5BA6C2"/></g></g><path d="M896 -90Q883 -90 774.0 -43.0Q665 4 544 81Q445 10 322.0 -37.5Q199 -85 155 -85Q133 -85 133 -70Q133 -53 180.0 -36.0Q227 -19 284 7Q412 66 487 124Q421 182 340 278Q254 143 142 49Q95 11 82 11Q65 11 65 26Q65 37 100.0 71.0Q135 105 180 164Q276 288 322 383Q345 433 365 487L222 479Q213 478 206.0 474.0Q199 470 186 470Q174 470 155.5 481.0Q137 492 137 508Q137 516 139 525Q236 686 242 710L245 743L241 774Q243 787 256 787Q268 787 290 774Q327 752 327 730Q327 709 233 548L389 558Q434 715 434 752Q434 772 430.0 785.0Q426 798 426 802Q426 818 444 818Q457 818 475 813Q524 795 524 766Q503 657 471 563L789 582Q809 583 820.0 587.0Q831 591 841.0 591.0Q851 591 865.5 580.0Q880 569 890.0 556.5Q900 544 900 537Q899 520 869 518L448 493Q434 455 400 387L717 403Q741 403 761.0 394.0Q781 385 781 368Q781 367 781.0 357.5Q781 348 771.5 339.0Q762 330 743.0 299.5Q724 269 681.5 218.0Q639 167 600 129Q755 31 941 -16Q959 -23 959.0 -40.0Q959 -57 923 -81Q910 -90 896 -90ZM719 614Q676 676 618 729Q607 738 607 751Q607 752 607.0 759.0Q607 766 623.0 777.0Q639 788 646.0 788.0Q653 788 671.0 775.5Q689 763 709.0 743.5Q729 724 748.5 704.0Q768 684 781.0 666.5Q794 649 794.0 641.0Q794 633 786 622Q767 595 750.0 595.0Q733 595 719 614ZM541 171Q622 248 672 333L395 320Q461 233 541 171Z" transform="translate(39.000 28) scale(0.022000 -0.022000)" fill="#31566A"/><path d="M555 -110Q544 -110 528 -104Q498 -90 498 -64Q498 -54 501.0 -37.5Q504 -21 505 357L349 349L355 81Q355 44 329 44Q306 44 289.0 59.5Q272 75 272 86Q272 100 274.5 113.5Q277 127 277 153L273 367Q216 298 136.5 238.5Q57 179 34 179Q20 179 20.0 191.0Q20 203 37 217Q167 335 243 438Q292 503 335 582L146 572Q117 572 108 579Q79 604 79 632Q79 644 92 644L135 640Q149 640 370 653Q417 749 417 786L416 805Q416 830 434 830Q448 830 462.5 822.0Q477 814 489.0 803.5Q501 793 501 783Q501 775 486.5 735.0Q472 695 455 659Q853 682 863.5 686.0Q874 690 885.0 690.0Q896 690 909.0 679.5Q922 669 930.5 657.0Q939 645 939 637Q939 619 913 616L421 587Q386 520 320 426Q327 424 344 416L506 425V506Q506 528 498.0 542.5Q490 557 490 564Q490 579 511 579Q527 579 546.5 570.5Q566 562 572.5 554.0Q579 546 579 530V428L767 439Q806 439 820.5 426.5Q835 414 835 403Q835 394 832.5 388.0Q830 382 820 135L821 104Q821 86 808.5 69.5Q796 53 776 53Q741 53 672.5 99.0Q604 145 604 162Q604 174 619 174Q628 174 664.0 160.0Q700 146 743 138L752 369L579 360V-78Q579 -110 555 -110Z" transform="translate(61.000 28) scale(0.022000 -0.022000)" fill="#31566A"/><path d="M130 545Q95 545 78.0 569.5Q61 594 61 603Q61 616 74 616Q109 611 128 611Q141 611 393 625Q348 681 289 729Q277 740 277 752Q277 763 289.0 776.5Q301 790 310 790Q318 790 335.0 779.0Q352 768 373.0 751.5Q394 735 414.0 716.0Q434 697 448.0 680.5Q462 664 462.0 653.0Q462 642 453 630L450 625Q450 624 452 624Q456 624 467 630L524 633Q658 759 658 808Q658 826 670 826Q678 826 692.0 816.0Q706 806 718.5 791.5Q731 777 731.0 763.0Q731 749 689.0 704.0Q647 659 625 639L825 650Q851 651 866.0 656.5Q881 662 889.0 662.0Q897 662 912 653Q950 629 950 607Q950 591 924 588L164 547Q144 545 130 545ZM800 -101Q787 -101 765.0 -89.5Q743 -78 718.0 -61.5Q693 -45 671.0 -26.0Q649 -7 633.5 8.5Q618 24 618 33Q618 46 634 46Q645 46 688.5 24.0Q732 2 773 -8L776 471Q776 500 764 520Q758 532 758 537Q758 546 771 546Q779 546 807.5 536.5Q836 527 844.5 517.5Q853 508 853 494L851 -11L852 -46Q852 -73 833.0 -87.0Q814 -101 800 -101ZM458 -92Q434 -92 365.5 -46.0Q297 0 297 19Q297 31 311 31Q319 31 352.0 18.5Q385 6 430 -6L429 143L235 133L231 -61Q231 -91 207 -91Q187 -91 169.5 -76.5Q152 -62 152 -47Q170 97 170 412Q170 450 164.0 466.5Q158 483 158 488Q158 501 173 501Q183 501 236 484L448 497Q471 497 487.0 487.0Q503 477 503 458L500 436Q503 -8 505 -39Q505 -58 489.0 -75.0Q473 -92 458 -92ZM652 84 637 88Q595 102 595 130Q595 138 597.5 151.5Q600 165 600 207L599 394Q599 427 592.5 439.5Q586 452 586 458Q586 469 601 469Q611 469 637.0 459.5Q663 450 667.0 440.0Q671 430 675 116Q675 84 652 84ZM238 342 428 352V431L240 418ZM236 199 429 209V288L237 278Z" transform="translate(83.000 28) scale(0.022000 -0.022000)" fill="#31566A"/><path d="M794 -91Q769 -91 754.0 -81.0Q739 -71 716.0 -54.0Q693 -37 668.0 -15.5Q643 6 624.0 25.0Q605 44 605 54Q605 68 623 68Q636 68 671.5 46.5Q707 25 775 -1Q777 -1 778 3Q822 174 828 536L587 520Q544 447 509.0 401.0Q474 355 460 355Q449 355 449 371Q449 382 479.5 437.5Q510 493 552.5 607.0Q595 721 595 764L593 780Q593 798 609 798Q613 798 630 790Q679 769 679 744Q679 716 619 591L860 605Q879 605 894.0 594.0Q909 583 909 565L906 542Q898 273 870 46Q853 -91 794 -91ZM176 -54Q151 -54 135.5 -41.0Q120 -28 120 -12L127 38L118 505Q118 532 107 550Q99 566 99 573Q99 584 120 584Q136 584 183 566H187Q262 706 262 742L260 757Q260 775 278 775Q302 775 322.0 759.5Q342 744 342 729Q342 715 305 647Q273 591 259 570Q388 577 400 577Q433 577 444 550L447 540L442 519L426 77Q450 46 450 34Q450 18 438.0 15.0Q426 12 198 4L199 -23Q199 -54 176 -54ZM192 328 364 337 369 510 189 500ZM701 180Q691 180 676 200Q645 249 607.0 295.0Q569 341 552.0 357.0Q535 373 535.0 385.0Q535 397 548.0 409.0Q561 421 572 421Q582 421 607.5 396.5Q633 372 691.0 306.0Q749 240 749 226Q749 202 720 187Q709 180 701 180ZM197 72 356 78 362 271 193 263Z" transform="translate(105.000 28) scale(0.022000 -0.022000)" fill="#31566A"/><path d="M510 -80Q494 -80 452.0 -60.0Q410 -40 343.0 6.0Q276 52 276 70Q276 85 294 85Q307 85 358.0 62.5Q409 40 475 21L478 744Q478 766 469.0 777.5Q460 789 460 793Q460 805 474 805Q482 805 502 802Q561 791 561 764L558 25L559 -15Q559 -43 543.0 -61.5Q527 -80 510 -80ZM66 118Q54 118 54 132Q54 142 67 162Q123 245 170.5 329.0Q218 413 243 514Q247 525 247 536L243 560Q243 575 262 575Q276 575 301 559Q344 534 344 514Q344 508 342 504Q237 262 106 145Q76 118 66 118ZM912 153Q892 153 884 171Q780 381 677 513Q670 523 670.0 534.0Q670 545 687.0 559.0Q704 573 719.0 573.0Q734 573 744 560Q829 448 898.0 331.0Q967 214 967 201Q967 186 948.5 169.5Q930 153 912 153Z" transform="translate(127.000 28) scale(0.022000 -0.022000)" fill="#31566A"/><path d="M218 -84Q185 -84 128.0 -24.5Q71 35 71 58Q71 69 84 69Q92 69 126.5 46.0Q161 23 201 9L202 253Q109 188 96 188Q70 188 47.0 208.0Q24 228 24 238Q24 251 41 252Q69 256 203 331L204 501Q114 494 102 494Q67 494 47 546Q46 549 46 555Q46 565 58 565Q74 561 94 561Q102 561 204 568L205 722Q205 750 189 774Q185 780 185 787Q185 798 198 798Q206 798 223 794Q275 783 275 749L274 572Q314 575 328.5 581.0Q343 587 350.0 587.0Q357 587 370.5 579.0Q384 571 395.5 558.5Q407 546 407 536Q407 517 377 515L274 506L273 373Q295 388 339 424Q355 436 365 436Q379 436 379 422Q379 395 273 305L271 18L273 -19Q273 -49 254.0 -66.5Q235 -84 218 -84ZM509 427Q498 427 478.0 437.0Q458 447 458 476L459 492Q459 520 447 675Q446 701 436.5 722.5Q427 744 427 749Q427 762 448 762Q464 762 509 743L776 762Q799 762 815.5 748.0Q832 734 832.0 723.0Q832 712 828.5 707.5Q825 703 803 529Q823 502 823 491Q823 477 812.0 475.0Q801 473 531 455V454Q531 427 509 427ZM517 631 748 646 752 695 513 678ZM526 518 736 531 741 584 521 570ZM296 -89Q281 -89 281.0 -77.0Q281 -65 309 -33Q367 34 422 162Q451 228 451 263Q451 272 449 281Q449 303 464 303Q475 303 491 293Q535 270 535 251Q535 229 495 149Q553 117 600 95L602 337L424 327Q405 327 396 333Q374 355 368 370L364 386Q364 399 376 399Q383 399 394.5 395.5Q406 392 430 392Q869 416 878.0 419.5Q887 423 894.0 423.0Q901 423 913.5 415.5Q926 408 936.5 396.0Q947 384 947 374Q947 355 915 353L673 340L671 242Q798 247 808.0 250.5Q818 254 825 254Q833 254 845 245Q879 224 879 204Q879 185 845 183L671 176L669 68Q800 20 960 -5Q986 -9 986 -22Q986 -26 978 -39Q957 -78 936 -78Q917 -78 844 -58Q611 4 463 91Q435 41 399.5 -0.5Q364 -42 335.5 -65.5Q307 -89 296 -89Z" transform="translate(149.000 28) scale(0.022000 -0.022000)" fill="#31566A"/><path d="M578 417Q556 417 540.0 430.5Q524 444 524 460Q527 482 527 500L513 700Q511 726 506.5 737.0Q502 748 499.5 753.0Q497 758 497 762Q497 775 515 775Q528 775 576 759L840 777Q851 777 869.0 767.0Q887 757 887 738Q887 732 884.5 726.0Q882 720 862 512Q885 488 885 477Q885 462 874.0 459.0Q863 456 599 446Q599 417 578 417ZM132 -44Q121 -44 102.5 -31.0Q84 -18 84 -4Q84 7 86.5 18.0Q89 29 89 65L86 500Q86 529 78.0 546.5Q70 564 70 571Q70 583 85 583Q94 583 145 566L186 569Q186 636 185 657L94 651Q75 651 59.5 670.5Q44 690 44 704Q44 721 56 721Q60 721 69.5 718.5Q79 716 116 716Q403 734 414.0 738.0Q425 742 432 742Q440 742 453 733Q489 711 489 692Q489 676 465 673L342 665L340 576L420 581Q436 581 447.5 567.0Q459 553 459.0 544.0Q459 535 455.5 531.0Q452 527 437 93Q463 63 463 52Q463 37 450.5 34.0Q438 31 153 22V-11Q153 -44 132 -44ZM586 635 804 649 809 713 581 698ZM248 571 279 574 280 662 249 660ZM595 506 795 517 801 589 589 576ZM360 362 382 363 387 521 339 518 337 382Q337 362 360 362ZM152 228 378 238 380 303 359 302Q277 302 277 375L278 515L248 513Q247 447 235.0 381.5Q223 316 175 268Q156 247 151 247ZM151 294Q186 367 186 511L150 508ZM513 -45Q466 -45 455 -42Q427 -32 415 5Q414 8 414 14Q414 24 425 24Q430 24 444.0 20.5Q458 17 478 17L668 22L669 123L597 120Q579 120 559.0 127.0Q539 134 527 168Q526 171 526 177Q526 187 537 187Q542 187 556.0 183.5Q570 180 589 180L670 183L671 272L569 267Q533 211 503.0 183.5Q473 156 465 156Q452 156 452 169Q452 178 470.5 207.5Q489 237 516.5 296.0Q544 355 544 387L543 398Q543 417 556 417Q565 417 579 409Q618 390 618 365Q618 359 614.5 352.5Q611 346 608 337L606 329L671 332L672 382Q672 404 659 423Q655 429 655 436Q655 447 669 447Q677 447 693 443Q741 431 741 405L740 335L799 338Q812 339 826.0 343.5Q840 348 850 348Q861 348 874.0 338.0Q887 328 895.5 316.5Q904 305 904 298Q904 285 879 281L740 275L739 185Q786 188 800.5 192.5Q815 197 822 197Q830 197 843.0 188.5Q856 180 866.0 168.0Q876 156 876 148Q876 133 850 130L738 125L737 24L891 28Q906 28 919.5 33.0Q933 38 939 38Q946 38 960 29Q997 4 997 -14Q997 -30 968 -32ZM152 84 373 93 376 177 152 167Z" transform="translate(171.000 28) scale(0.022000 -0.022000)" fill="#31566A"/></svg>
